<?xml version="1.0" encoding="UTF-8"?>
<svg version="1.1" xmlns="http://www.w3.org/2000/svg" width="652" height="135">
<path d="M0 0 C215.16 0 430.32 0 652 0 C652 44.55 652 89.1 652 135 C436.84 135 221.68 135 0 135 C0 90.45 0 45.9 0 0 Z " fill="#EEF6FD" transform="translate(0,0)"/>
<path d="M0 0 C3.1875 1.5 3.1875 1.5 5 3 C4.46604696 7.53860088 2.5802582 10.29087883 0 14 C-2.35370671 21.06112012 -1.27249381 28.39636554 2 35 C6.41366704 41.97887523 12.25355919 45.45386399 20 48 C24.14139361 48.56260946 28.20136681 48.55130071 32.375 48.5 C45.98980845 48.7237011 55.83846941 50.60083779 65.8984375 60.5625 C72.13428447 67.79515522 73.74311264 74.15102413 73.3515625 83.671875 C72.0673375 95.82920497 65.08527115 105.1512875 56 113 C53.44524732 114.94768273 50.862107 116.54413054 48 118 C47.38253906 118.3196875 46.76507813 118.639375 46.12890625 118.96875 C37.25397834 122.70556175 24.36407164 122.7058343 15.375 119.375 C4.06697245 113.83756383 -2.59361177 104.83785876 -9.5625 94.6875 C-13.22368586 89.38003889 -16.89654003 84.09627995 -20.765625 78.9375 C-21.36173584 78.13739502 -21.95784668 77.33729004 -22.57202148 76.51293945 C-23.70388393 75.00066708 -24.84612847 73.49609102 -26.00024414 72.00073242 C-29.28013145 67.59501386 -30.7331636 64.51702283 -31 59 C-28.03497454 57.51748727 -26.33856155 57.64229698 -23 58 C-14.91392519 60.8580092 -9.05571836 66.08601122 -3 72 C-4.33923141 65.94157221 -7.68303642 63.12820889 -12.75 59.8125 C-21.17015362 54.0748732 -27.61442534 46.03432341 -30 36 C-31.21974594 26.53426325 -29.63402155 17.95109577 -23.94140625 10.1953125 C-16.8957416 1.99715295 -10.89167299 -1.29111017 0 0 Z " fill="#08C18B" transform="translate(39,8)"/>
<path d="M0 0 C1.06444336 0.01123901 1.06444336 0.01123901 2.15039062 0.02270508 C10.50255711 0.19462755 17.60327845 1.7080676 24.125 7.25 C24.785 8.57 25.445 9.89 26.125 11.25 C23.815 14.22 21.505 17.19 19.125 20.25 C17.12279141 19.2488957 15.11992323 18.24724548 13.15234375 17.1796875 C7.15607874 14.15353506 1.8017853 13.33856582 -4.875 14.25 C-7.42378922 15.42244304 -8.93797378 16.31297378 -10.875 18.25 C-11.38939035 22.02219591 -11.28425884 23.69524581 -8.99609375 26.796875 C-4.76528803 30.12221417 -0.77399364 30.76807168 4.4375 31.75 C14.5371058 33.67713326 22.07104896 36.62770609 28.125 45.25 C30.32559242 51.72482002 30.3890114 60.44260089 27.5625 66.6875 C24.47729727 71.88074161 19.6912521 75.93072829 14.125 78.25 C3.46957965 80.57946425 -9.22568112 80.88000075 -18.875 75.25 C-22.43555996 72.4582519 -25.70120806 69.47198401 -28.875 66.25 C-27.51129701 63.25779732 -25.92591917 60.95973471 -23.75 58.5 C-23.21117187 57.88640625 -22.67234375 57.2728125 -22.1171875 56.640625 C-21.50230469 55.95226562 -21.50230469 55.95226562 -20.875 55.25 C-18.14223911 56.51982679 -16.39246982 57.66819282 -14.0625 59.6875 C-8.2478347 64.57644744 -2.84442231 65.58226063 4.57421875 65.55078125 C7.22302335 65.23844135 8.87166721 64.6514016 11.125 63.25 C13.66234319 59.82458669 13.50101557 56.38617129 13.125 52.25 C10.94254193 49.33743118 8.77258094 48.64794401 5.30078125 47.8203125 C4.35396484 47.58183594 3.40714844 47.34335938 2.43164062 47.09765625 C0.45578263 46.62076945 -1.52076976 46.14674945 -3.49804688 45.67578125 C-12.71733374 43.34446733 -19.20901239 39.97634674 -24.875 32.25 C-26.42458148 29.15083704 -26.14181073 25.89928151 -26.1875 22.5 C-26.21650391 21.79617187 -26.24550781 21.09234375 -26.27539062 20.3671875 C-26.33788787 15.19433881 -25.26719165 12.35163067 -21.875 8.25 C-19.9453125 6.421875 -19.9453125 6.421875 -18 5 C-17.36320313 4.52046875 -16.72640625 4.0409375 -16.0703125 3.546875 C-10.88369542 0.4828948 -5.92409812 -0.08196777 0 0 Z " fill="#050405" transform="translate(157.875,28.75)"/>
<path d="M0 0 C6.16530669 3.69208385 8.90511714 8.21257952 11 15 C11 19.95 11 24.9 11 30 C-1.87 30 -14.74 30 -28 30 C-25.06314197 39.34886052 -25.06314197 39.34886052 -21.25 42.625 C-15.95725702 44.86423741 -12.04404864 44.77133911 -6.6875 42.75 C-4.07132616 41.04644494 -2.63344672 39.63166416 -1 37 C3.10958767 38.45044271 6.43258745 40.51110752 10 43 C8.60916712 48.25425753 5.43699093 51.13530085 1 54 C-7.55388472 57.95931106 -17.41395412 58.57022025 -26.3125 55.4375 C-32.80708888 52.44561074 -37.2364911 48.15201779 -40.4375 41.75 C-43.62735687 32.70744922 -43.98774899 20.06360117 -40 11.25 C-31.15039752 -3.07435656 -15.11014797 -6.91348191 0 0 Z " fill="#050405" transform="translate(239,51)"/>
<path d="M0 0 C3.6106628 3.26264711 5.90456527 6.44376704 6.20532227 11.34814453 C6.24717572 12.77623392 6.28385724 14.20448075 6.31640625 15.6328125 C6.33718735 16.38464813 6.35796844 17.13648376 6.37937927 17.91110229 C6.44482705 20.31564085 6.50373738 22.72028967 6.5625 25.125 C6.60568977 26.75391771 6.64930421 28.38282422 6.69335938 30.01171875 C6.80050351 34.00769915 6.90178433 38.00379059 7 42 C7.97195313 42.29519531 8.94390625 42.59039062 9.9453125 42.89453125 C13 44 13 44 13.875 45.6875 C14.0431099 48.79753308 14.05987712 51.88638952 14 55 C8.74605226 56.75131591 3.13561649 56.8898402 -2 54.75 C-4.07808444 52.93167612 -4.91533148 51.50308119 -6 49 C-6.99 48.505 -6.99 48.505 -8 48 C-8.165 48.7425 -8.33 49.485 -8.5 50.25 C-10.73312658 54.3440654 -13.60534513 55.67022579 -18 57 C-23.86333044 57.8316185 -29.4914796 57.83992857 -34.49609375 54.37890625 C-38.30111045 50.89015068 -40.61278102 47.39464372 -41.4453125 42.24609375 C-41.62963174 37.73027235 -41.32149264 34.68008058 -39.375 30.5625 C-34.57880048 25.38765315 -29.69678597 23.32261351 -23 21.875 C-18.24705474 20.79397298 -13.60288715 19.62539452 -9 18 C-9 15.69 -9 13.38 -9 11 C-13.01741177 8.99129412 -17.64547941 9.37151249 -22 10 C-24.85577787 11.38081567 -27.32945534 12.94040552 -29.90625 14.78515625 C-30.5971875 15.18605469 -31.288125 15.58695313 -32 16 C-36.06540996 14.64486335 -36.97300269 12.69203082 -39 9 C-38.8182985 6.17536751 -38.28201032 5.24816908 -36.14453125 3.3671875 C-35.37496094 2.87476563 -34.60539062 2.38234375 -33.8125 1.875 C-33.05582031 1.37742187 -32.29914063 0.87984375 -31.51953125 0.3671875 C-22.41629347 -4.57255393 -9.19744631 -5.29194894 0 0 Z " fill="#060506" transform="translate(361,51)"/>
<path d="M0 0 C3.1875 1.5 3.1875 1.5 5 3 C4.46604696 7.53860088 2.5802582 10.29087883 0 14 C-2.0936453 20.28093589 -1.37556542 26.63362272 0.87890625 32.79296875 C2.90172643 36.77517572 5.87071389 39.85648986 9 43 C9.5671875 43.56976563 10.134375 44.13953125 10.71875 44.7265625 C11.35296875 45.35691406 11.35296875 45.35691406 12 46 C9.525 46.495 9.525 46.495 7 47 C7.185625 47.639375 7.37125 48.27875 7.5625 48.9375 C8.15333516 53.07334611 7.58271759 56.8851173 7 61 C7.99 61.495 7.99 61.495 9 62 C9 62.66 9 63.32 9 64 C15.46453674 65.93631171 21.27621577 66.24556441 28 66.125 C28.96550781 66.11597656 29.93101563 66.10695313 30.92578125 66.09765625 C33.28412099 66.07430635 35.64192286 66.04156047 38 66 C38 66.66 38 67.32 38 68 C33.81255925 68.05840224 29.62522435 68.09373166 25.4375 68.125 C24.25607422 68.14175781 23.07464844 68.15851563 21.85742188 68.17578125 C15.84603241 68.2094585 10.65816878 68.11038894 5 66 C4.95101562 66.68707031 4.90203125 67.37414062 4.8515625 68.08203125 C4.77679688 68.98308594 4.70203125 69.88414063 4.625 70.8125 C4.52058594 72.15248047 4.52058594 72.15248047 4.4140625 73.51953125 C4 76 4 76 2 79 C1.649375 78.21625 1.29875 77.4325 0.9375 76.625 C-3.24040884 68.44326185 -7.80032134 62.83877517 -15.50390625 57.83203125 C-22.67469794 52.56896192 -27.94390557 44.64844721 -30 36 C-31.21974594 26.53426325 -29.63402155 17.95109577 -23.94140625 10.1953125 C-16.8957416 1.99715295 -10.89167299 -1.29111017 0 0 Z " fill="#3DD127" transform="translate(39,8)"/>
<path d="M0 0 C2.64 0 5.28 0 8 0 C12.52863806 15.14889547 15.80609464 30.52171602 19 46 C21.26514829 40.14836692 23.21499291 34.26429621 25 28.25 C25.39300293 26.93491455 25.39300293 26.93491455 25.79394531 25.59326172 C27.48450564 19.88472583 29.02398093 14.15795541 30.41015625 8.3671875 C31.11932108 5.52113527 32.00398887 2.75818466 33 0 C36.3 0 39.6 0 43 0 C47.29 14.85 51.58 29.7 56 45 C57.79428654 42.30857019 58.37779773 41.03913358 59.03735352 38.01928711 C59.30256554 36.82806496 59.30256554 36.82806496 59.57313538 35.61277771 C59.75653976 34.7595845 59.93994415 33.9063913 60.12890625 33.02734375 C60.32346909 32.14849014 60.51803192 31.26963654 60.7184906 30.364151 C61.33914568 27.55654588 61.95128369 24.74717371 62.5625 21.9375 C63.17855847 19.12455831 63.79641955 16.31203611 64.41722107 13.50013733 C64.80314422 11.75018879 65.18609238 9.99958105 65.56581116 8.24827576 C66.88868684 2.22262633 66.88868684 2.22262633 68 0 C70.64 0 73.28 0 76 0 C73.64800774 12.00753945 70.85114735 23.88448178 67.875 35.75 C67.69928467 36.45181396 67.52356934 37.15362793 67.3425293 37.87670898 C65.65330341 44.61236934 63.9330161 51.32965827 62 58 C58.37 58 54.74 58 51 58 C45.140625 37.4921875 45.140625 37.4921875 44.08007812 33.76855469 C43.34207559 31.19355307 42.59726462 28.62158662 41.84179688 26.05175781 C41.47634766 24.79975586 41.11089844 23.54775391 40.734375 22.2578125 C40.40147461 21.12746582 40.06857422 19.99711914 39.72558594 18.83251953 C39 16 39 16 39 13 C36.79543207 13.81878594 36.79543207 13.81878594 36.2097168 16.10693359 C35.95875244 17.02812988 35.70778809 17.94932617 35.44921875 18.8984375 C35.02298218 20.44156616 35.02298218 20.44156616 34.58813477 22.01586914 C34.29092529 23.12438232 33.99371582 24.23289551 33.6875 25.375 C33.38062256 26.49575928 33.07374512 27.61651855 32.75756836 28.77124023 C31.82818507 32.17817199 30.91146786 35.58823503 30 39 C29.73155273 40.00466309 29.46310547 41.00932617 29.18652344 42.04443359 C27.77164248 47.35799619 26.37688425 52.67647058 25 58 C21.04 58 17.08 58 13 58 C12.45472656 55.63714844 12.45472656 55.63714844 11.8984375 53.2265625 C11.65826904 52.1859668 11.41810059 51.14537109 11.1706543 50.07324219 C10.6354236 47.75363545 10.10043432 45.433973 9.56567383 43.11425781 C8.14964284 36.97329443 6.72966476 30.83329908 5.30078125 24.6953125 C5.03023926 23.5304834 4.75969727 22.3656543 4.48095703 21.16552734 C3.9612825 18.92852836 3.44017748 16.69186109 2.91748047 14.45556641 C1.80331746 9.65277399 0.7155104 4.88230624 0 0 Z " fill="#0C0A0D" transform="translate(563,49)"/>
<path d="M0 0 C5.28 0 10.56 0 16 0 C17.85726717 5.3548417 19.70851917 10.71171008 21.55419922 16.07055664 C22.18307764 17.89371965 22.81360328 19.71631533 23.44580078 21.53833008 C24.35361247 24.15559251 25.25550331 26.77483028 26.15625 29.39453125 C26.44060913 30.21025101 26.72496826 31.02597076 27.01794434 31.8664093 C27.27821411 32.62697128 27.53848389 33.38753326 27.80664062 34.17114258 C28.03758423 34.83954666 28.26852783 35.50795074 28.50646973 36.1966095 C29 38 29 38 29 41 C29.66 41 30.32 41 31 41 C31.103125 40.175 31.20625 39.35 31.3125 38.5 C31.95669639 35.22045472 32.98077736 32.32785523 34.1730957 29.21630859 C35.54568316 25.5374338 36.7256949 21.79670809 37.9375 18.0625 C39.97212937 11.86202737 42.16455082 5.88900983 45 0 C49.62 0 54.24 0 59 0 C57.87505239 6.74968567 57.87505239 6.74968567 56.68066406 9.94726562 C56.41658752 10.66241333 56.15251099 11.37756104 55.88043213 12.11437988 C55.4523526 13.24885559 55.4523526 13.24885559 55.015625 14.40625 C54.56941803 15.60888489 54.56941803 15.60888489 54.11419678 16.83581543 C53.16449882 19.39245122 52.20752214 21.94628555 51.25 24.5 C50.31111477 27.01822777 49.37376005 29.53702104 48.43664551 32.0559082 C47.82617977 33.69660061 47.21510293 35.33706578 46.60339355 36.97729492 C44.00216862 43.96194066 41.48755274 50.97408769 39 58 C33.06 58 27.12 58 21 58 C20.13713379 55.62095459 20.13713379 55.62095459 19.25683594 53.19384766 C17.15725331 47.42028369 15.02826359 41.65799864 12.890625 35.8984375 C12.12882787 33.84247696 11.36711134 31.78648655 10.60546875 29.73046875 C9.41890919 26.52819349 8.23185134 23.32610659 7.04345703 20.12451172 C5.88687782 17.00802899 4.73232111 13.89080346 3.578125 10.7734375 C3.21881897 9.80691254 2.85951294 8.84038757 2.48931885 7.84457397 C2.16187683 6.95919952 1.83443481 6.07382507 1.49707031 5.16162109 C1.20713196 4.3798349 0.9171936 3.59804871 0.61846924 2.79257202 C0 1 0 1 0 0 Z " fill="#060406" transform="translate(255,49)"/>
<path d="M0 0 C4.28502826 3.38447959 5.84578015 8.07250778 6.69140625 13.3359375 C7.26972764 20.57607646 6.99880317 27.74419172 3.69140625 34.3359375 C0.10918395 38.50249393 -3.4262965 41.0822288 -9.015625 41.57421875 C-13.80301936 41.68863446 -17.38876838 41.74657382 -21.80859375 39.7734375 C-28.03736815 33.70038246 -29.436395 27.13876392 -29.68359375 18.6484375 C-29.64122983 11.92669618 -28.36043144 6.76326746 -24.30859375 1.3359375 C-17.68386692 -4.54822027 -7.47381039 -4.25780713 0 0 Z " fill="#EBF4FA" transform="translate(537.30859375,58.6640625)"/>
<path d="M0 0 C6.84553117 4.25628881 9.66208371 9.44469989 12 17 C12.495 18.485 12.495 18.485 13 20 C14.00474489 30.37687341 12.44661289 41.12881768 5.9375 49.5625 C0.1968307 55.33981187 -7.10989704 57.16384767 -15.0625 57.5625 C-22.68625637 57.26585578 -28.98031161 54.40817511 -34.375 49 C-40.55852011 40.90169668 -42.15019673 29.8944634 -41 20 C-39.16729631 11.42980289 -35.14488161 5.18354156 -28 0 C-19.33596119 -4.92661031 -8.88980762 -4.1279372 0 0 Z M-26 8 C-32.26834545 15.81508005 -32.58520322 23.22178627 -32 33 C-30.89749034 39.10286842 -28.86686431 42.98483695 -24 47 C-19.32585675 50.1160955 -14.47526936 49.47138081 -9 49 C-4.76404725 47.48715973 -1.69142095 45.61949713 1 42 C4.92803999 32.96382217 5.50460964 23.19020794 1.98046875 13.94140625 C0.05482114 10.12847054 -2.57835815 7.85298511 -6.1875 5.6875 C-13.06855637 4.005464 -19.90023005 4.17269337 -26 8 Z " fill="#0A080A" transform="translate(540,51)"/>
<path d="M0 0 C14.85 0 29.7 0 45 0 C45 2.64 45 5.28 45 8 C33.12 8 21.24 8 9 8 C9 16.91 9 25.82 9 35 C19.56 35 30.12 35 41 35 C41 37.64 41 40.28 41 43 C30.44 43 19.88 43 9 43 C9 54.22 9 65.44 9 77 C6.03 77 3.06 77 0 77 C0 51.59 0 26.18 0 0 Z " fill="#0C090D" transform="translate(413,30)"/>
<path d="M0 0 C6.50884048 0.89337026 6.50884048 0.89337026 9.42456055 1.52636719 C12.01327386 2.00244111 14.39029116 2.12557641 17.01953125 2.140625 C18.43008789 2.16962891 18.43008789 2.16962891 19.86914062 2.19921875 C21.8194564 2.2328672 23.77009887 2.25128623 25.72070312 2.25390625 C33.51358537 2.45604244 38.49212474 4.42960815 43.97265625 10.0078125 C45.95110435 13.84434683 45.59033605 17.81458372 45 22 C42.21215948 27.68290567 37.88648 31.68225913 32.125 34.3125 C24.72586528 35.94030964 20.06787391 35.20916845 13.4609375 31.62109375 C9.3800054 28.9328607 6.18363999 25.68245916 3 22 C2.175 21.071875 1.35 20.14375 0.5 19.1875 C-2.36253645 13.10461004 -1.4281945 6.42106959 0 0 Z " fill="#ECF6FC" transform="translate(44,74)"/>
<path d="M0 0 C6.6625382 0.40379019 10.95066105 5.71019752 15.1875 10.375 C18.14646182 13.94153531 20.1705631 17.75903264 22 22 C22.3609375 22.69222656 22.721875 23.38445313 23.09375 24.09765625 C24.46283912 28.48228217 24.28822755 32.74749317 24.25 37.3125 C24.25773437 38.22451172 24.26546875 39.13652344 24.2734375 40.07617188 C24.25724519 45.72323885 23.60043928 50.58264006 22 56 C20 55 20 55 19.1796875 52.90625 C17.62949578 49.08723464 15.43374707 45.89917571 13.125 42.5 C12.69058594 41.84902344 12.25617187 41.19804688 11.80859375 40.52734375 C9.89569723 37.68384892 7.95694994 34.9462643 5.8125 32.26953125 C-0.40473828 24.48458418 -2.97553773 14.86793937 -2 5 C-1 1.9375 -1 1.9375 0 0 Z " fill="#088E39" transform="translate(20,31)"/>
<path d="M0 0 C2.64 0 5.28 0 8 0 C8.01030746 0.88505219 8.02061493 1.77010437 8.03123474 2.68197632 C8.12909267 11.01075816 8.23159027 19.33946707 8.33933926 27.66812706 C8.39457322 31.95027441 8.44799398 36.23242858 8.49731445 40.51464844 C8.54495103 44.64493488 8.59729358 48.77513701 8.65294075 52.90532303 C8.67336751 54.48340387 8.69208006 56.06150783 8.70907402 57.63962936 C8.73311097 59.84496189 8.76316634 62.05013451 8.79467773 64.25537109 C8.81022202 65.51223724 8.8257663 66.76910339 8.84178162 68.0640564 C8.80090472 70.93383832 8.80090472 70.93383832 10 73 C11.89533342 73.46523063 11.89533342 73.46523063 14.0625 73.625 C16.0115625 73.810625 16.0115625 73.810625 18 74 C18.33 76.31 18.66 78.62 19 81 C15.52817697 82.73591152 11.79591036 82.46571673 8 82 C3.94293534 79.93458526 1.57701403 78.26980001 0 74 C-0.24050903 70.70965576 -0.24050903 70.70965576 -0.22705078 66.75292969 C-0.22734283 66.03058136 -0.22763489 65.30823303 -0.22793579 64.56399536 C-0.22654562 62.18316517 -0.21099934 59.80265033 -0.1953125 57.421875 C-0.19158125 55.76849539 -0.18873481 54.11511357 -0.18673706 52.46173096 C-0.17910938 48.11500926 -0.15946833 43.76842171 -0.1373291 39.42175293 C-0.11685204 34.98431208 -0.10773136 30.5468495 -0.09765625 26.109375 C-0.07622161 17.40618851 -0.04209612 8.70311096 0 0 Z " fill="#02020A" transform="translate(472,26)"/>
<path d="M0 0 C0.62334158 9.73105464 0.62334158 9.73105464 -1.75 14.5625 C-5.06047673 18.14884979 -6.62584997 18.87730803 -11.5 19.3125 C-15 19 -15 19 -17.4375 18.0625 C-19.64756614 15.14521269 -19.68507283 12.75620534 -19.50390625 9.15625 C-19 7 -19 7 -16.5625 4.5625 C-13.00889067 3.00389942 -9.75390834 2.08617039 -5.953125 1.39453125 C-3.730839 0.94562948 -2.28905778 0 0 0 Z " fill="#E7EEF1" transform="translate(354,78)"/>
<path d="M0 0 C3.14194806 1.65989709 5.31255973 3.03133416 7.375 5.9375 C8 8 8 8 8 13 C0.08 13 -7.84 13 -16 13 C-14.84615385 4.92307692 -14.84615385 4.92307692 -10 1 C-6.38069302 -0.20643566 -3.80768995 -0.32268559 0 0 Z " fill="#E6EEF4" transform="translate(228,59)"/>
<path d="M0 0 C1.59648868 2.39473302 2.91868288 4.71162202 4.25 7.25 C7.38382471 12.94280583 11.40143442 17.45585532 16 22 C14.35 22.33 12.7 22.66 11 23 C11.185625 23.639375 11.37125 24.27875 11.5625 24.9375 C12.15333516 29.07334611 11.58271759 32.8851173 11 37 C11.66 37.33 12.32 37.66 13 38 C13 38.66 13 39.32 13 40 C19.46453674 41.93631171 25.27621577 42.24556441 32 42.125 C33.44826172 42.11146484 33.44826172 42.11146484 34.92578125 42.09765625 C37.28412099 42.07430635 39.64192286 42.04156047 42 42 C42 42.66 42 43.32 42 44 C37.81255925 44.05840224 33.62522435 44.09373166 29.4375 44.125 C28.25607422 44.14175781 27.07464844 44.15851563 25.85742188 44.17578125 C19.84603241 44.2094585 14.65816878 44.11038894 9 42 C8.98582031 40.97261719 8.97164062 39.94523437 8.95703125 38.88671875 C8.69848292 29.90596651 7.59443068 22.92738473 3 15 C2.51273438 14.11699219 2.02546875 13.23398437 1.5234375 12.32421875 C0.05595362 9.75433505 0.05595362 9.75433505 -3 8 C-3 7.34 -3 6.68 -3 6 C-3.9590625 5.566875 -3.9590625 5.566875 -4.9375 5.125 C-7 4 -7 4 -8 2 C-5.525 2.99 -5.525 2.99 -3 4 C-2.01 2.68 -1.02 1.36 0 0 Z " fill="#16C145" transform="translate(35,32)"/>
<path d="M0 0 C0.33 0 0.66 0 1 0 C1.03738281 0.83402344 1.07476562 1.66804688 1.11328125 2.52734375 C1.52381216 9.5546669 2.44234969 15.43907095 5 22 C6.28446919 19.43106162 6.32977144 17.23423663 6.5625 14.375 C6.64628906 13.37210938 6.73007812 12.36921875 6.81640625 11.3359375 C6.87699219 10.56507812 6.93757813 9.79421875 7 9 C7.33 9 7.66 9 8 9 C8.15855469 9.97839844 8.31710938 10.95679688 8.48046875 11.96484375 C9.83929727 19.8016221 11.4092178 26.34805028 16 33 C16.47308594 33.69222656 16.94617188 34.38445313 17.43359375 35.09765625 C18.5944246 36.751758 19.79305222 38.37924156 21 40 C16.21768852 40 13.47280513 37.09615899 10 34 C2.01379699 25.54686173 -1.52622727 17.1903326 -1.23828125 5.56640625 C-1 3 -1 3 0 0 Z " fill="#3CCC36" transform="translate(10,29)"/>
<path d="M0 0 C7.71683908 2.72750347 17.23844074 8.47688148 21 16 C21.66 15.67 22.32 15.34 23 15 C23 16.32 23 17.64 23 19 C21.02 18.67 19.04 18.34 17 18 C16.9175 17.21625 16.835 16.4325 16.75 15.625 C16.27193661 12.85250896 16.27193661 12.85250896 13.9375 11.6875 C13.298125 11.460625 12.65875 11.23375 12 11 C12 10.34 12 9.68 12 9 C11.0409375 8.8453125 11.0409375 8.8453125 10.0625 8.6875 C9.381875 8.460625 8.70125 8.23375 8 8 C7.67 7.01 7.34 6.02 7 5 C5.35 5 3.7 5 2 5 C2 4.34 2 3.68 2 3 C-0.41619823 2.74969023 -0.41619823 2.74969023 -3 3 C-3.99 4.485 -3.99 4.485 -5 6 C-4.01 7.65 -3.02 9.3 -2 11 C-2.99 11 -3.98 11 -5 11 C-7.60250805 7.62637846 -8.36265043 5.23092172 -8 1 C-5.03497454 -0.48251273 -3.33856155 -0.35770302 0 0 Z " fill="#37BDC4" transform="translate(16,66)"/>
<path d="M0 0 C1.61759974 2.42639961 3.03946668 4.82282702 4.4375 7.375 C6.22912089 10.6243006 8.06061628 13.83574235 10 17 C3.44812362 15.6401766 3.44812362 15.6401766 1.25 12.5 C0.8375 11.675 0.425 10.85 0 10 C-0.99 9.34 -1.98 8.68 -3 8 C-3 7.34 -3 6.68 -3 6 C-3.9590625 5.566875 -3.9590625 5.566875 -4.9375 5.125 C-7 4 -7 4 -8 2 C-5.525 2.99 -5.525 2.99 -3 4 C-2.01 2.68 -1.02 1.36 0 0 Z " fill="#2CCF2F" transform="translate(35,32)"/>
<path d="M0 0 C1.59366727 2.3905009 2.95810052 4.72649347 4.3125 7.25 C6.60150012 11.41243772 9.16429867 15.19205821 12 19 C7.26489514 19 4.4325537 16.07861334 1 13 C-0.88086561 10.74566107 -2.41226353 8.48083824 -4 6 C-1.525 6.495 -1.525 6.495 1 7 C0.67 4.69 0.34 2.38 0 0 Z " fill="#25C436" transform="translate(19,50)"/>
<path d="M0 0 C1.44010481 0.25662245 2.8770687 0.53090821 4.3125 0.8125 C5.11300781 0.96332031 5.91351563 1.11414063 6.73828125 1.26953125 C9.28318618 2.09146082 10.16632839 3.11729973 12 5 C20.56327116 8.27470697 29.58404894 7.85223418 38.015625 4.66796875 C40.40733188 3.86288631 42.49473071 3.75755458 45 4 C39.70864137 9.29135863 32.11561541 9.35777921 25.0625 9.4375 C15.30171934 9.38759826 7.79440296 6.94836015 0 1 C0 0.67 0 0.34 0 0 Z " fill="#33BCB6" transform="translate(44,120)"/>
<path d="M0 0 C2.375 0.3125 2.375 0.3125 5 1 C5.66 1.99 6.32 2.98 7 4 C5.35 4 3.7 4 2 4 C-0.34217431 10.89640212 0.32101674 15.97410081 2 23 C2.66 23 3.32 23 4 23 C6.10865385 26.47307692 6.10865385 26.47307692 5.55859375 29.140625 C5.28208984 30.06101562 5.28208984 30.06101562 5 31 C-0.13642958 22.5307726 -2.99132109 15.0275941 -2 5 C-1 1.9375 -1 1.9375 0 0 Z " fill="#0CB129" transform="translate(20,31)"/>
<path d="M0 0 C1.875 0.1875 1.875 0.1875 4 1 C4.27199219 1.69609375 4.54398438 2.3921875 4.82421875 3.109375 C6.34776077 6.85496003 8.55331245 9.81821594 10.9375 13.0625 C11.60168945 13.97999023 11.60168945 13.97999023 12.27929688 14.91601562 C14.08979241 17.41185522 15.90956245 19.88505679 17.81640625 22.30859375 C19 24 19 24 19 26 C19.66 26 20.32 26 21 26 C23.01782732 28.90567134 24.35494404 31.51669784 25 35 C20.90130757 31.17406228 17.8433889 27.09904586 14.75 22.4375 C10.55692714 16.2092265 6.19174361 10.18343225 1.58203125 4.2578125 C0 2 0 2 0 0 Z " fill="#2AB9C5" transform="translate(13,78)"/>
<path d="M0 0 C0.33 1.32 0.66 2.64 1 4 C0.01 4 -0.98 4 -2 4 C-2.33 5.98 -2.66 7.96 -3 10 C-3.99 10.33 -4.98 10.66 -6 11 C-6 11.99 -6 12.98 -6 14 C-6.99 14 -7.98 14 -9 14 C-7.64002446 7.95566426 -4.14348206 4.36505864 0 0 Z " fill="#6DCB5B" transform="translate(20,13)"/>
<path d="M0 0 C0.33 0 0.66 0 1 0 C1.20625 0.99 1.4125 1.98 1.625 3 C2.97508828 7.7884426 5.914378 11.1920441 9 15 C10.0048203 16.32970446 11.00618128 17.66205301 12 19 C8.82461668 18.65978036 7.97723135 17.97533396 5.75 15.5625 C4 13 4 13 4 11 C3.01 11.33 2.02 11.66 1 12 C0 11 0 11 -0.09765625 8.49609375 C-0.08605469 7.48675781 -0.07445312 6.47742188 -0.0625 5.4375 C-0.05347656 4.42558594 -0.04445312 3.41367188 -0.03515625 2.37109375 C-0.02355469 1.58863281 -0.01195312 0.80617188 0 0 Z " fill="#3EBFC2" transform="translate(42,84)"/>
<path d="M0 0 C0.33 0 0.66 0 1 0 C1.33 6.6 1.66 13.2 2 20 C-0.74790363 15.87814456 -1.13695043 13.99205253 -1.125 9.0625 C-1.12757812 8.00160156 -1.13015625 6.94070312 -1.1328125 5.84765625 C-1 3 -1 3 0 0 Z " fill="#78CB70" transform="translate(10,29)"/>
<path d="M0 0 C2.12046792 3.53411321 2.53199289 6.94393835 3 11 C3.66 11 4.32 11 5 11 C7.10865385 14.47307692 7.10865385 14.47307692 6.55859375 17.140625 C6.28208984 18.06101562 6.28208984 18.06101562 6 19 C5.18432826 17.56429734 4.37257907 16.12636566 3.5625 14.6875 C3.11003906 13.88699219 2.65757813 13.08648437 2.19140625 12.26171875 C-0.02808319 8.04832733 -0.08873605 4.70301066 0 0 Z " fill="#09A02C" transform="translate(19,43)"/>
<path d="M0 0 C3.65316671 1.24976756 4.78065836 1.67098753 7 5 C9.05925139 5.72382467 9.05925139 5.72382467 11 6 C11.33 8.31 11.66 10.62 12 13 C11.401875 12.21625 10.80375 11.4325 10.1875 10.625 C8.08914751 7.85425677 8.08914751 7.85425677 5 6 C5 5.34 5 4.68 5 4 C4.360625 3.71125 3.72125 3.4225 3.0625 3.125 C1 2 1 2 0 0 Z " fill="#1CC533" transform="translate(27,34)"/>
<path d="M0 0 C0 0.33 0 0.66 0 1 C-0.59167969 1.03738281 -1.18335937 1.07476562 -1.79296875 1.11328125 C-6.75243447 1.52589585 -9.73973702 2.32212041 -14 5 C-16.3125 4.6875 -16.3125 4.6875 -18 4 C-11.97181491 -0.28670939 -7.28695785 -0.474377 0 0 Z " fill="#6EC95E" transform="translate(39,8)"/>
<path d="M0 0 C0.66 0.33 1.32 0.66 2 1 C1.46939601 5.51013391 -0.30886117 8.38378219 -3 12 C-3.33 12 -3.66 12 -4 12 C-4 10.02 -4 8.04 -4 6 C-2.68 5.67 -1.36 5.34 0 5 C0 3.35 0 1.7 0 0 Z " fill="#5AC851" transform="translate(42,10)"/>
<path d="M0 0 C2.39256506 1.19628253 2.79843378 2.12565265 4.0625 4.4375 C4.40410156 5.05496094 4.74570312 5.67242187 5.09765625 6.30859375 C5.74921553 7.52991482 6.38094352 8.76188703 7 10 C5.02 9.34 3.04 8.68 1 8 C0.67 5.36 0.34 2.72 0 0 Z " fill="#42C556" transform="translate(38,39)"/>
<path d="M0 0 C4.24480464 -0.33292585 6.35542625 -0.43885872 9.9375 2 C10.618125 2.66 11.29875 3.32 12 4 C11.01 4.33 10.02 4.66 9 5 C9 4.34 9 3.68 9 3 C7.35 3 5.7 3 4 3 C4 2.34 4 1.68 4 1 C2.68 0.67 1.36 0.34 0 0 Z " fill="#20BCC4" transform="translate(14,68)"/>
<path d="M0 0 C2.97 0.495 2.97 0.495 6 1 C6.33 3.31 6.66 5.62 7 8 C4.35247996 5.42215154 2.05567935 3.08351902 0 0 Z " fill="#50CA52" transform="translate(15,56)"/>
<path d="M0 0 C0.66 0.33 1.32 0.66 2 1 C1.01 2.485 1.01 2.485 0 4 C0.99 5.65 1.98 7.3 3 9 C2.01 9 1.02 9 0 9 C-2.1519437 5.77208445 -2.20086443 4.71599191 -2 1 C-1.34 0.67 -0.68 0.34 0 0 Z " fill="#20BDC9" transform="translate(11,68)"/>
<path d="M0 0 C6.64615385 1.47692308 6.64615385 1.47692308 8.4375 4.125 C8.7159375 5.053125 8.7159375 5.053125 9 6 C5.06326356 4.68775452 2.77280706 3.08089673 0 0 Z " fill="#55C66D" transform="translate(22,64)"/>
<path d="M0 0 C0.66 0.33 1.32 0.66 2 1 C-0.31 3.31 -2.62 5.62 -5 8 C-5.33 7.34 -5.66 6.68 -6 6 C-4 4 -2 2 0 0 Z " fill="#B8D9F1" transform="translate(517,57)"/>
<path d="M0 0 C2.97 0.495 2.97 0.495 6 1 C5.67 1.99 5.34 2.98 5 4 C3.35 3.67 1.7 3.34 0 3 C0 2.01 0 1.02 0 0 Z " fill="#0CC836" transform="translate(53,55)"/>
<path d="M0 0 C1.423125 0.2784375 1.423125 0.2784375 2.875 0.5625 C5.89868793 1.28686632 5.89868793 1.28686632 8 0 C8 1.65 8 3.3 8 5 C5.36 3.68 2.72 2.36 0 1 C0 0.67 0 0.34 0 0 Z " fill="#2ECE2F" transform="translate(23,31)"/>
<path d="M0 0 C-0.33 0.99 -0.66 1.98 -1 3 C-1.66 3 -2.32 3 -3 3 C-3 3.99 -3 4.98 -3 6 C-3.99 6 -4.98 6 -6 6 C-5.6875 4.125 -5.6875 4.125 -5 2 C-2 0 -2 0 0 0 Z " fill="#63CD4C" transform="translate(17,21)"/>
</svg>